<?xml version="1.0" standalone="no"?>
<!DOCTYPE svg PUBLIC "-//W3C//DTD SVG 20010904//EN"
 "http://www.w3.org/TR/2001/REC-SVG-20010904/DTD/svg10.dtd">
<svg version="1.0" xmlns="http://www.w3.org/2000/svg"
 width="300.000000pt" height="157.000000pt" viewBox="0 0 300.000000 157.000000"
 preserveAspectRatio="xMidYMid meet">
<metadata>
Created by potrace 1.10, written by Peter Selinger 2001-2011
</metadata>
<g transform="translate(0.000000,157.000000) scale(0.100000,-0.100000)"
fill="#000000" stroke="none">
<path d="M2702 1227 c-30 -38 -64 -124 -52 -132 5 -3 25 26 45 64 19 39 31 72
26 75 -5 3 -13 0 -19 -7z"/>
<path d="M2792 1221 c-28 -5 -38 -15 -67 -68 -18 -35 -31 -63 -28 -63 18 0 46
27 68 64 19 32 34 45 57 50 17 3 32 5 34 3 1 -1 -15 -28 -37 -61 -43 -63 -46
-71 -25 -59 14 9 116 129 116 138 0 6 -75 4 -118 -4z"/>
<path d="M2354 1213 c-31 -4 -32 -6 -43 -76 -6 -40 -20 -151 -31 -247 -11 -96
-25 -208 -30 -248 -6 -40 -10 -88 -10 -107 l0 -35 103 0 104 0 14 77 c8 42 19
78 25 80 6 2 34 -32 61 -76 l51 -79 108 -4 c60 -2 111 -3 113 -1 2 1 -10 24
-26 50 -17 26 -49 83 -72 125 l-41 78 72 68 c40 37 96 89 123 115 l50 48 -100
-6 c-147 -10 -161 -15 -236 -92 -75 -77 -99 -110 -99 -135 0 -11 20 5 58 46
31 35 61 65 65 65 4 1 20 13 35 28 15 15 18 20 7 12 -18 -13 -19 -13 -7 3 22
27 94 44 173 39 10 -1 -20 -36 -77 -92 -63 -63 -91 -96 -87 -107 4 -8 30 -59
59 -111 28 -53 50 -99 48 -103 -4 -6 -130 -1 -150 6 -7 3 -26 28 -43 58 -56
96 -64 103 -99 89 -31 -13 -42 -40 -42 -102 0 -17 -5 -29 -12 -29 -9 0 -9 -3
1 -9 17 -11 -24 -19 -103 -20 l-49 0 7 77 c4 42 11 109 16 147 6 39 15 111 20
160 22 200 32 260 42 272 7 8 36 13 84 13 88 0 84 17 49 -194 -27 -162 -33
-258 -14 -239 6 6 15 44 19 84 5 41 18 130 29 199 12 69 21 137 21 153 l0 27
-77 -2 c-43 0 -92 -3 -109 -5z"/>
<path d="M281 1163 c-36 -19 -65 -53 -75 -89 -9 -31 34 -79 83 -91 56 -15 116
13 136 61 21 49 19 61 -12 96 -36 39 -85 48 -132 23z m100 -39 c39 -20 38 -55
-1 -87 -41 -35 -63 -40 -103 -24 -39 17 -53 54 -28 78 49 47 87 57 132 33z"/>
<path d="M990 1110 c-63 -4 -181 -8 -261 -9 l-147 -1 -35 -39 c-49 -54 -70
-88 -62 -101 4 -6 50 -10 116 -10 l109 0 0 -38 c0 -20 -11 -127 -25 -236 -14
-109 -25 -201 -25 -202 0 -2 47 -4 105 -4 l104 0 10 38 c10 36 43 240 56 337
3 28 11 66 16 86 l9 37 96 4 c80 3 99 7 110 23 15 20 19 101 7 108 -19 11 -77
13 -183 7z m161 -42 c7 -13 5 -25 -7 -43 -14 -22 -23 -24 -101 -27 -78 -3 -88
-5 -104 -28 -11 -14 -23 -50 -29 -80 -5 -30 -21 -127 -36 -215 -15 -88 -30
-163 -33 -167 -3 -4 -38 -8 -76 -10 -81 -3 -74 -19 -56 137 41 345 43 338 -94
344 -47 1 -85 6 -85 9 0 17 48 73 65 77 11 2 119 7 240 10 121 3 222 8 224 11
13 12 83 -1 92 -18z"/>
<path d="M1881 934 c-104 -28 -171 -88 -171 -153 0 -65 50 -103 170 -130 87
-20 88 -20 66 -37 -26 -19 -104 -18 -151 1 -20 9 -45 13 -55 10 -21 -7 -90
-80 -90 -96 0 -18 84 -48 163 -59 181 -25 338 50 354 169 5 38 2 46 -27 76
-22 23 -56 42 -99 56 -79 26 -88 33 -70 55 11 13 25 15 82 9 l68 -6 35 37 c19
20 33 41 31 47 -11 34 -208 47 -306 21z m220 -19 c40 -5 44 -10 27 -33 -12
-17 -23 -20 -75 -16 -66 4 -105 -15 -116 -56 -5 -21 15 -50 36 -50 6 0 42 -12
80 -26 76 -29 93 -51 83 -106 -18 -98 -179 -155 -354 -126 -78 13 -97 37 -61
74 23 23 25 23 73 9 75 -23 130 -20 163 9 23 20 26 28 17 43 -11 19 -19 22
-117 48 -31 9 -71 28 -88 43 -27 24 -31 32 -24 60 7 35 43 74 89 98 40 22 154
43 198 38 21 -3 51 -7 69 -9z"/>
<path d="M1276 931 c-46 -10 -89 -53 -84 -85 3 -20 7 -21 98 -18 85 4 98 2
123 -18 15 -12 27 -24 27 -28 0 -4 -39 -7 -88 -8 -100 0 -164 -23 -220 -77
-106 -101 -89 -214 33 -232 71 -11 177 1 224 24 50 26 55 26 48 0 -5 -20 -3
-21 40 -15 25 3 56 6 68 6 27 0 37 21 66 145 29 122 30 202 4 237 -36 50 -98
72 -205 75 -52 1 -113 -2 -134 -6z m236 -32 c21 -5 50 -20 65 -34 25 -21 28
-29 26 -77 -3 -63 -6 -79 -17 -96 -4 -7 -5 -20 -2 -28 3 -9 1 -12 -4 -9 -6 4
-10 -7 -10 -25 0 -17 -5 -51 -11 -76 -11 -44 -12 -44 -55 -44 -24 0 -53 5 -63
12 -15 9 -29 7 -72 -12 -66 -29 -188 -31 -238 -6 -56 29 -54 91 6 157 58 64
102 81 218 87 55 3 103 9 107 15 11 17 -14 56 -50 79 -29 18 -44 20 -102 15
-54 -4 -70 -3 -74 8 -16 43 157 63 276 34z"/>
<path d="M1315 678 c-43 -15 -63 -35 -71 -71 -8 -39 9 -52 69 -56 38 -1 51 3
81 29 19 17 38 40 41 51 14 42 -57 70 -120 47z m92 -35 c3 -7 -7 -24 -21 -38
-28 -28 -72 -33 -102 -11 -24 18 -13 32 42 51 45 17 76 15 81 -2z"/>
<path d="M273 903 c-58 -4 -62 -6 -67 -31 -10 -42 -66 -386 -66 -399 0 -10 26
-13 95 -13 l94 0 10 38 c13 50 59 294 67 360 l7 52 -39 -2 c-22 -1 -67 -3
-101 -5z m99 -63 c-2 -19 -12 -80 -23 -135 -21 -103 -25 -128 -34 -182 -6 -35
-19 -42 -80 -42 -62 0 -66 6 -55 74 6 33 13 80 16 105 3 25 8 48 10 52 2 3 7
33 10 65 10 93 21 102 119 99 39 -1 40 -1 37 -36z"/>
</g>
</svg>
